<svg width="24" height="24" viewBox="0 0 24 24" fill="none" xmlns="http://www.w3.org/2000/svg">
<path fill-rule="evenodd" clip-rule="evenodd" d="M21.8001 12.2273C21.8001 11.5182 21.7364 10.8364 21.6182 10.1819H12.2V14.0501H17.5819C17.35 15.3001 16.6455 16.3592 15.5864 17.0683V19.5774H18.8182C20.7091 17.8364 21.8001 15.2728 21.8001 12.2273Z" fill="#4285F4"/>
<path fill-rule="evenodd" clip-rule="evenodd" d="M12.2 22C14.9001 22 17.1637 21.1045 18.8183 19.5773L15.5864 17.0682C14.691 17.6682 13.5455 18.0227 12.2 18.0227C9.59549 18.0227 7.39093 16.2636 6.60457 13.9H3.26364V16.4909C4.9091 19.7591 8.29094 22 12.2 22Z" fill="#34A853"/>
<path fill-rule="evenodd" clip-rule="evenodd" d="M6.60458 13.9C6.40458 13.3 6.29094 12.6591 6.29094 12C6.29094 11.3409 6.40458 10.7 6.60458 10.1V7.50906H3.26365C2.58638 8.85907 2.20001 10.3864 2.20001 12C2.20001 13.6136 2.58638 15.1409 3.26365 16.4909L6.60458 13.9Z" fill="#FBBC05"/>
<path fill-rule="evenodd" clip-rule="evenodd" d="M12.2 5.97729C13.6682 5.97729 14.9864 6.48184 16.0228 7.47275L18.891 4.60456C17.1592 2.99091 14.8955 2 12.2 2C8.29094 2 4.9091 4.24092 3.26364 7.50912L6.60457 10.1C7.39093 7.73639 9.59549 5.97729 12.2 5.97729Z" fill="#EA4335"/>
</svg>
